<svg width="40" height="40" viewBox="0 0 40 40" fill="none" xmlns="http://www.w3.org/2000/svg">
  <rect width="40" height="40" rx="8" fill="#635BFF"/>
  <path d="M20.5 15.5C20.5 14.12 21.62 13 23 13C24.38 13 25.5 14.12 25.5 15.5C25.5 16.88 24.38 18 23 18C21.62 18 20.5 16.88 20.5 15.5ZM14.5 17.5C14.5 16.12 15.62 15 17 15C18.38 15 19.5 16.12 19.5 17.5C19.5 18.88 18.38 20 17 20C15.62 20 14.5 18.88 14.5 17.5ZM26.5 19.5C26.5 18.12 27.62 17 29 17C30.38 17 31.5 18.12 31.5 19.5C31.5 20.88 30.38 22 29 22C27.62 22 26.5 20.88 26.5 19.5ZM8.5 19.5C8.5 18.12 9.62 17 11 17C12.38 17 13.5 18.12 13.5 19.5C13.5 20.88 12.38 22 11 22C9.62 22 8.5 20.88 8.5 19.5ZM14.5 23.5C14.5 22.12 15.62 21 17 21C18.38 21 19.5 22.12 19.5 23.5C19.5 24.88 18.38 26 17 26C15.62 26 14.5 24.88 14.5 23.5ZM20.5 25.5C20.5 24.12 21.62 23 23 23C24.38 23 25.5 24.12 25.5 25.5C25.5 26.88 24.38 28 23 28C21.62 28 20.5 26.88 20.5 25.5Z" fill="white"/>
</svg> 